<?xml version="1.0" standalone="no"?>
<!DOCTYPE svg PUBLIC "-//W3C//DTD SVG 20010904//EN"
 "http://www.w3.org/TR/2001/REC-SVG-20010904/DTD/svg10.dtd">
<svg version="1.0" xmlns="http://www.w3.org/2000/svg"
 width="260.000000pt" height="260.000000pt" viewBox="0 0 260.000000 260.000000"
 preserveAspectRatio="xMidYMid meet">
<metadata>
Created by potrace 1.11, written by Peter Selinger 2001-2013
</metadata>
<g transform="translate(0.000000,260.000000) scale(0.100000,-0.100000)"
fill="#000000" stroke="none">
<path d="M1148 2475 c-1 -2 -23 -6 -48 -8 -65 -8 -149 -25 -190 -39 -19 -7
-37 -13 -40 -13 -34 -8 -92 -29 -120 -45 -35 -19 -34 -19 540 -19 450 0 571 2
555 12 -11 6 -22 12 -25 13 -3 0 -18 6 -35 13 -16 7 -38 14 -47 16 -9 2 -25 8
-35 13 -16 9 -129 35 -208 48 -35 6 -342 14 -347 9z"/>
<path d="M478 2193 c-24 -21 -56 -52 -71 -70 l-29 -33 911 0 c501 0 911 3 911
6 0 3 -30 35 -67 70 l-67 64 -773 0 -772 0 -43 -37z"/>
<path d="M245 1907 c-19 -35 -35 -67 -35 -70 0 -4 486 -7 1080 -7 673 0 1080
4 1080 9 0 6 -16 37 -35 70 l-36 61 -1009 0 -1009 0 -36 -63z"/>
<path d="M153 1698 c0 -7 -7 -36 -16 -65 -8 -28 -13 -54 -10 -57 4 -3 529 -6
1169 -6 924 0 1162 3 1160 13 -1 6 -8 38 -16 70 l-13 57 -1137 0 c-903 0
-1137 -3 -1137 -12z"/>
<path d="M101 1394 c-1 -31 -3 -61 -4 -67 -1 -9 289 -12 1193 -12 l1195 0 -1
35 c-1 19 -2 50 -3 68 l-1 32 -1188 0 -1189 0 -2 -56z"/>
<path d="M106 1128 c3 -35 8 -66 11 -70 2 -5 533 -8 1179 -8 1111 0 1174 1
1174 18 0 9 3 41 6 70 l6 52 -1191 0 -1191 0 6 -62z"/>
<path d="M150 918 c0 -7 7 -31 16 -53 8 -22 17 -48 21 -57 5 -17 66 -18 1102
-18 l1097 0 16 38 c9 20 21 52 26 70 l11 32 -1145 0 c-909 0 -1144 -3 -1144
-12z"/>
<path d="M260 661 c0 -5 7 -16 15 -25 8 -8 15 -18 15 -23 0 -4 10 -19 23 -33
l23 -25 958 0 c652 0 959 3 964 11 4 5 22 31 40 57 l33 47 -1036 0 c-630 0
-1035 -4 -1035 -9z"/>
<path d="M440 434 c0 -1 29 -27 65 -58 l64 -54 718 0 718 0 30 22 c17 13 47
39 69 58 l39 35 -852 0 c-468 0 -851 -1 -851 -3z"/>
<path d="M815 199 c-4 -6 112 -43 187 -59 155 -33 398 -32 579 2 68 12 200 56
179 58 -43 5 -942 4 -945 -1z"/>
</g>
</svg>
